<svg viewBox="0 0 25 20" fill="none" xmlns="http://www.w3.org/2000/svg">
<path fill-rule="evenodd" clip-rule="evenodd" d="M23.4583 19.3333C23.4583 19.3333 25 19.3333 25 17.7777C25 16.2222 23.4583 11.5555 17.2916 11.5555C11.125 11.5555 9.58331 16.2222 9.58331 17.7777C9.58331 19.3333 11.125 19.3333 11.125 19.3333H23.4583ZM11.1589 17.7777H23.4244C23.4316 17.7769 23.4388 17.7759 23.446 17.7746L23.4583 17.7715C23.4552 17.3608 23.2009 16.1693 22.2866 15.096C21.4356 14.0895 19.9402 13.1111 17.2916 13.1111C14.6446 13.1111 13.1492 14.0911 12.2966 15.096C11.3824 16.1693 11.1265 17.3624 11.125 17.7715C11.1363 17.7737 11.1476 17.7758 11.1589 17.7777ZM17.2916 8.4444C18.1094 8.4444 18.8937 8.11663 19.4719 7.53318C20.0501 6.94973 20.375 6.15841 20.375 5.33329C20.375 4.50817 20.0501 3.71685 19.4719 3.1334C18.8937 2.54996 18.1094 2.22218 17.2916 2.22218C16.4739 2.22218 15.6896 2.54996 15.1114 3.1334C14.5332 3.71685 14.2083 4.50817 14.2083 5.33329C14.2083 6.15841 14.5332 6.94973 15.1114 7.53318C15.6896 8.11663 16.4739 8.4444 17.2916 8.4444ZM21.9166 5.33329C21.9166 5.94613 21.797 6.55296 21.5646 7.11915C21.3322 7.68533 20.9915 8.19978 20.562 8.63312C20.1325 9.06646 19.6227 9.41021 19.0616 9.64473C18.5004 9.87925 17.899 9.99996 17.2916 9.99996C16.6843 9.99996 16.0829 9.87925 15.5217 9.64473C14.9606 9.41021 14.4507 9.06646 14.0213 8.63312C13.5918 8.19978 13.2511 7.68533 13.0187 7.11915C12.7863 6.55296 12.6666 5.94613 12.6666 5.33329C12.6666 4.09562 13.1539 2.90863 14.0213 2.03346C14.8886 1.15829 16.065 0.666626 17.2916 0.666626C18.5183 0.666626 19.6947 1.15829 20.562 2.03346C21.4294 2.90863 21.9166 4.09562 21.9166 5.33329ZM11.0263 11.9911C10.4096 11.7951 9.77392 11.6663 9.13006 11.6068C8.76828 11.5721 8.40506 11.555 8.04165 11.5555C1.87498 11.5555 0.333313 16.2222 0.333313 17.7777C0.333313 18.8153 0.846688 19.3333 1.87498 19.3333H8.37465C8.1461 18.8477 8.03212 18.3152 8.04165 17.7777C8.04165 16.2066 8.62285 14.6013 9.72206 13.2604C10.0967 12.8031 10.533 12.3753 11.0263 11.9911ZM7.91831 13.1111C5.34681 13.1422 3.88685 14.1066 3.04665 15.096C2.12627 16.1755 1.87498 17.3717 1.87498 17.7777H6.49998C6.49998 16.1522 6.99794 14.5328 7.91831 13.1111ZM2.64581 6.11107C2.64581 4.87339 3.13309 3.68641 4.00044 2.81124C4.8678 1.93607 6.04419 1.4444 7.27081 1.4444C8.49744 1.4444 9.67383 1.93607 10.5412 2.81124C11.4085 3.68641 11.8958 4.87339 11.8958 6.11107C11.8958 7.34875 11.4085 8.53573 10.5412 9.4109C9.67383 10.2861 8.49744 10.7777 7.27081 10.7777C6.04419 10.7777 4.8678 10.2861 4.00044 9.4109C3.13309 8.53573 2.64581 7.34875 2.64581 6.11107ZM7.27081 2.99996C6.45306 2.99996 5.6688 3.32774 5.09057 3.91118C4.51233 4.49463 4.18748 5.28595 4.18748 6.11107C4.18748 6.93619 4.51233 7.72751 5.09057 8.31096C5.6688 8.8944 6.45306 9.22218 7.27081 9.22218C8.08856 9.22218 8.87282 8.8944 9.45106 8.31096C10.0293 7.72751 10.3541 6.93619 10.3541 6.11107C10.3541 5.28595 10.0293 4.49463 9.45106 3.91118C8.87282 3.32774 8.08856 2.99996 7.27081 2.99996Z" fill="#23A6F0"/>
</svg>
