<svg width="20" height="20" viewBox="0 0 20 20" fill="none" xmlns="http://www.w3.org/2000/svg">
<path d="M19.1707 7.41927C19.1131 7.24946 19.007 7.10025 18.8655 6.99006C18.724 6.87987 18.5533 6.81353 18.3746 6.79922L13.1454 6.38371L10.8826 1.3747C10.8105 1.21337 10.6933 1.07634 10.5451 0.980156C10.3969 0.883971 10.224 0.832739 10.0473 0.832642C9.8706 0.832545 9.69766 0.883587 9.54933 0.979609C9.40101 1.07563 9.28364 1.21253 9.2114 1.37378L6.94858 6.38371L1.71943 6.79922C1.54374 6.81314 1.37578 6.87738 1.23564 6.98425C1.0955 7.09113 0.989122 7.23612 0.929227 7.40187C0.869332 7.56762 0.858458 7.74712 0.897905 7.91889C0.937353 8.09066 1.02545 8.24743 1.15166 8.37044L5.01597 12.1375L3.64929 18.0555C3.60779 18.2347 3.62109 18.4221 3.68747 18.5936C3.75384 18.7651 3.87022 18.9127 4.02151 19.0172C4.17279 19.1217 4.352 19.1783 4.53587 19.1797C4.71975 19.1811 4.8998 19.1272 5.05266 19.025L10.047 15.6955L15.0413 19.025C15.1976 19.1288 15.3818 19.1822 15.5693 19.1781C15.7568 19.1739 15.9386 19.1125 16.0901 19.002C16.2416 18.8916 16.3557 18.7373 16.417 18.5601C16.4782 18.3828 16.4838 18.1911 16.4328 18.0106L14.7552 12.1403L18.9157 8.39612C19.1882 8.15031 19.2881 7.7669 19.1707 7.41927Z" fill="#F3CD03"/>
</svg>
